<?xml version="1.0" encoding="UTF-8"?>
<svg version="1.1" xmlns="http://www.w3.org/2000/svg" width="235" height="235">
<path d="M0 0 C77.55 0 155.1 0 235 0 C235 77.55 235 155.1 235 235 C157.45 235 79.9 235 0 235 C0 157.45 0 79.9 0 0 Z " fill="#854DCE" transform="translate(0,0)"/>
<path d="M0 0 C0.50015625 0.15855469 1.0003125 0.31710938 1.515625 0.48046875 C4.21594302 1.0451579 6.83164609 1.15366342 9.58374023 1.23876953 C23.25237996 1.70399315 36.48163553 3.48537607 47 13 C49.625 15.8125 49.625 15.8125 52 19 C53.41553248 20.73009526 54.83228625 22.45919172 56.25 24.1875 C63.65087767 33.24383715 61.165527 44.86977454 60.23046875 55.94140625 C59.69491494 62.47378261 59.69491494 62.47378261 60 69 C60.66 69.66 61.32 70.32 62 71 C62.90875303 78.72440075 60.8047709 86.82332258 58 94 C56.36112645 95.69400385 54.69620567 97.3634054 53 99 C51.99521095 101.45164798 51.99521095 101.45164798 51.5625 104.0625 C50.56538058 108.43359329 49.13144571 111.61232319 46.8125 115.4375 C42.36912658 123.72082576 43.51380208 132.88829083 44 142 C44.56154785 142.19190918 45.1230957 142.38381836 45.70166016 142.58154297 C46.43175293 142.84080566 47.1618457 143.10006836 47.9140625 143.3671875 C48.64061035 143.62097168 49.3671582 143.87475586 50.11572266 144.13623047 C52 145 52 145 53.375 147.125 C53.74350752 148.82013458 54.10292651 150.51736512 54.44140625 152.21875 C54.60511719 153.0128125 54.76882812 153.806875 54.9375 154.625 C55.07027344 155.38039062 55.20304688 156.13578125 55.33984375 156.9140625 C56.10344384 159.32685807 57.18635214 160.29013035 59 162 C59 162.66 59 163.32 59 164 C59.6084375 164.12375 60.216875 164.2475 60.84375 164.375 C67.63809368 165.9736691 73.43805891 168.54972932 79.58837891 171.73754883 C84.77252356 174.41726107 90.02794081 176.85084349 95.375 179.1875 C100.86483206 181.59489559 106.30242253 184.04086836 111.6328125 186.7890625 C113.42656175 187.706657 115.23704575 188.59163058 117.0546875 189.4609375 C128.7164364 195.0779657 128.7164364 195.0779657 132 199 C132 201.97 132 204.94 132 208 C54.45 208 -23.1 208 -103 208 C-103 205.36 -103 202.72 -103 200 C-102.34 200 -101.68 200 -101 200 C-100.67 199.01 -100.34 198.02 -100 197 C-97.10625565 193.63121808 -93.36583476 191.97795404 -89.4375 190.0625 C-88.72166748 189.70841064 -88.00583496 189.35432129 -87.26831055 188.98950195 C-82.57846067 186.69557087 -77.84483823 184.64659156 -72.9609375 182.796875 C-70.8377864 181.99533918 -70.8377864 181.99533918 -68.4375 180.4375 C-66.08461832 179.04990311 -64.0318831 178.31285055 -61.4375 177.5 C-58.83195517 176.6814818 -57.12723514 176.09639026 -54.9375 174.4375 C-51.91579381 172.19558896 -48.65613957 171.79216357 -45 171 C-45 170.34 -45 169.68 -45 169 C-36.738041 164.40774487 -36.738041 164.40774487 -32 165 C-32 164.34 -32 163.68 -32 163 C-30.35 162.67 -28.7 162.34 -27 162 C-27 161.01 -27 160.02 -27 159 C-26.34 159 -25.68 159 -25 159 C-24.92652344 157.75283203 -24.92652344 157.75283203 -24.8515625 156.48046875 C-24.77679688 155.39378906 -24.70203125 154.30710938 -24.625 153.1875 C-24.55539063 152.10855469 -24.48578125 151.02960938 -24.4140625 149.91796875 C-24 147 -24 147 -22 144 C-16.66666667 141 -16.66666667 141 -14 141 C-14.022135 129.89929996 -14.16346065 120.6889862 -19.51953125 110.765625 C-20.89499523 108.19615668 -21.7632185 105.85305505 -22.5625 103.0625 C-23.64225333 99.52471996 -25.1951004 97.70775593 -27.7265625 94.9921875 C-31.6353583 88.87720021 -33.76738517 79.12133434 -33 72 C-32.01909098 70.98126672 -31.01998059 69.97961196 -30 69 C-29.85916626 66.79416864 -29.85916626 66.79416864 -30.3125 64.25 C-31.0019881 57.87223509 -31.2292724 51.53907401 -31.3125 45.125 C-31.34190674 44.12629883 -31.37131348 43.12759766 -31.40161133 42.09863281 C-31.46591576 34.37430706 -29.51869547 30.88728505 -24.4375 25.0625 C-21.84823858 22.11680675 -21.84823858 22.11680675 -20.625 18.5 C-17.28726129 11.31102432 -11.53249407 8.44913558 -4.33203125 5.76171875 C-2.23391454 5.07640425 -0.1491686 4.49900236 2 4 C1.01 2.02 1.01 2.02 0 0 Z " fill="#010001" transform="translate(103,27)"/>
<path d="M0 0 C0.86286621 0.23771118 0.86286621 0.23771118 1.74316406 0.48022461 C3.90939777 0.97913326 5.89322683 1.19888324 8.109375 1.31640625 C9.24052734 1.37924805 9.24052734 1.37924805 10.39453125 1.44335938 C11.56048828 1.50233398 11.56048828 1.50233398 12.75 1.5625 C13.93916016 1.62727539 13.93916016 1.62727539 15.15234375 1.69335938 C17.10137815 1.79902991 19.05066748 1.89997966 21 2 C21 2.33 21 2.66 21 3 C16.71 3 12.42 3 8 3 C8 3.66 8 4.32 8 5 C5.36 5 2.72 5 0 5 C-0.66 6.32 -1.32 7.64 -2 9 C-3.65 8.67 -5.3 8.34 -7 8 C-6.01 7.34 -5.02 6.68 -4 6 C-3.34 5.34 -2.68 4.68 -2 4 C-0.68 4 0.64 4 2 4 C1.34 2.68 0.68 1.36 0 0 Z " fill="#2A2331" transform="translate(103,27)"/>
<path d="M0 0 C3.94949704 0.62816498 7.19892028 1.8645529 10.8125 3.5625 C12.27623047 4.24505859 12.27623047 4.24505859 13.76953125 4.94140625 C14.87361328 5.46541016 14.87361328 5.46541016 16 6 C13 8 13 8 10.7734375 7.86328125 C9.98195312 7.68152344 9.19046875 7.49976563 8.375 7.3125 C7.57835937 7.14363281 6.78171875 6.97476563 5.9609375 6.80078125 C5.31382812 6.53652344 4.66671875 6.27226562 4 6 C3.67 5.01 3.34 4.02 3 3 C2.01 2.67 1.02 2.34 0 2 C0 1.34 0 0.68 0 0 Z " fill="#1D142A" transform="translate(197,207)"/>
<path d="M0 0 C-0.66 1.65 -1.32 3.3 -2 5 C-2.99 4.67 -3.98 4.34 -5 4 C-5.33 4.66 -5.66 5.32 -6 6 C-8 8 -8 8 -9.98046875 8.265625 C-11.98888143 8.25140615 -13.99584122 8.13142025 -16 8 C-16.33 8.66 -16.66 9.32 -17 10 C-17.66 9.34 -18.32 8.68 -19 8 C-18.19175781 7.67386719 -17.38351563 7.34773437 -16.55078125 7.01171875 C-14.94783203 6.35623047 -14.94783203 6.35623047 -13.3125 5.6875 C-12.25675781 5.25824219 -11.20101563 4.82898438 -10.11328125 4.38671875 C-6.99437593 3.07381037 -6.99437593 3.07381037 -4.23046875 1.33203125 C-2 0 -2 0 0 0 Z " fill="#231932" transform="translate(39,206)"/>
<path d="M0 0 C0.33 0.66 0.66 1.32 1 2 C0.67 2.66 0.34 3.32 0 4 C-0.66 4 -1.32 4 -2 4 C-2 4.66 -2 5.32 -2 6 C-2.99 6.33 -3.98 6.66 -5 7 C-6.02281518 9.09719872 -6.02281518 9.09719872 -6.6875 11.5625 C-6.93886719 12.38878906 -7.19023438 13.21507812 -7.44921875 14.06640625 C-7.63097656 14.70449219 -7.81273438 15.34257812 -8 16 C-9.32180199 11.64582875 -9.03205968 8.09770712 -7 4 C-4.75083462 2.13433287 -2.70817326 1.20363256 0 0 Z " fill="#2E1A50" transform="translate(87,168)"/>
<path d="M0 0 C-2.39509338 2.89932357 -4.31245243 3.50168276 -8 4 C-8 4.66 -8 5.32 -8 6 C-9.98 5.34 -11.96 4.68 -14 4 C-8.94313183 0.02674644 -6.49977193 -1.47722089 0 0 Z " fill="#251B35" transform="translate(72,193)"/>
<path d="M0 0 C-0.66 1.98 -1.32 3.96 -2 6 C-2.33 5.34 -2.66 4.68 -3 4 C-3.66 4 -4.32 4 -5 4 C-5.12375 4.721875 -5.2475 5.44375 -5.375 6.1875 C-5.9904931 8.95721894 -6.88444374 11.3970354 -8 14 C-8.33 14 -8.66 14 -9 14 C-9 11.36 -9 8.72 -9 6 C-8.34 6 -7.68 6 -7 6 C-6.67 5.01 -6.34 4.02 -6 3 C-3.86928565 0.38503239 -3.5167455 0 0 0 Z " fill="#231A2E" transform="translate(9,221)"/>
<path d="M0 0 C1.55088212 2.83148603 2.36753896 5.329931 2.9375 8.5 C3.65841109 12.00074425 4.46971408 14.35470108 7 17 C4.10371669 15.7016661 1.9320396 14.54677947 0 12 C-0.29296875 9.08203125 -0.29296875 9.08203125 -0.1875 5.8125 C-0.16042969 4.72582031 -0.13335937 3.63914063 -0.10546875 2.51953125 C-0.07066406 1.68808594 -0.03585938 0.85664063 0 0 Z " fill="#301E4A" transform="translate(155,173)"/>
<path d="M0 0 C0.66 0.66 1.32 1.32 2 2 C1.34 2.66 0.68 3.32 0 4 C-0.17245986 6.84997222 -0.23216611 9.59062321 -0.1875 12.4375 C-0.18685547 13.21416016 -0.18621094 13.99082031 -0.18554688 14.79101562 C-0.15987563 18.10260575 -0.05352418 20.83942745 1 24 C0.01 23.67 -0.98 23.34 -2 23 C-2.0580476 19.72924117 -2.09361165 16.45861476 -2.125 13.1875 C-2.14175781 12.25873047 -2.15851563 11.32996094 -2.17578125 10.37304688 C-2.18222656 9.48037109 -2.18867188 8.58769531 -2.1953125 7.66796875 C-2.20578613 6.84578857 -2.21625977 6.0236084 -2.22705078 5.17651367 C-2 3 -2 3 0 0 Z " fill="#42266D" transform="translate(148,146)"/>
<path d="M0 0 C0 3.47289374 -0.64169543 5.80798426 -2 9 C-4.125 10.375 -4.125 10.375 -6 11 C-5.62671065 5.64951939 -4.0042343 3.49087093 0 0 Z " fill="#140F1B" transform="translate(88,38)"/>
<path d="M0 0 C4.43090471 1.20842856 6.98112756 2.51668565 10 6 C3.25 6.125 3.25 6.125 1 5 C0.375 2.4375 0.375 2.4375 0 0 Z " fill="#19131F" transform="translate(136,32)"/>
<path d="M0 0 C2.5 0.9375 2.5 0.9375 5 3 C5.45787911 6.03816258 5.28780586 8.94925785 5 12 C4.34 12 3.68 12 3 12 C2.92652344 11.04287109 2.92652344 11.04287109 2.8515625 10.06640625 C2.77679688 9.24011719 2.70203125 8.41382813 2.625 7.5625 C2.55539063 6.73878906 2.48578125 5.91507813 2.4140625 5.06640625 C2.27742187 4.38449219 2.14078125 3.70257813 2 3 C1.34 2.67 0.68 2.34 0 2 C0 1.34 0 0.68 0 0 Z " fill="#1A1425" transform="translate(230,223)"/>
<path d="M0 0 C4.23429756 1.31061591 8.07407404 2.94356259 12 5 C10.02 5.99 10.02 5.99 8 7 C7.236875 6.360625 6.47375 5.72125 5.6875 5.0625 C3.11753287 2.85767219 3.11753287 2.85767219 0 2 C0 1.34 0 0.68 0 0 Z " fill="#271B39" transform="translate(185,201)"/>
<path d="M0 0 C2.97 0.99 5.94 1.98 9 3 C8.34 3.66 7.68 4.32 7 5 C4.03 4.01 1.06 3.02 -2 2 C-1.34 1.34 -0.68 0.68 0 0 Z " fill="#181124" transform="translate(146,169)"/>
<path d="M0 0 C0.66 0.33 1.32 0.66 2 1 C2 1.66 2 2.32 2 3 C-1 5 -1 5 -3.1875 4.625 C-3.785625 4.41875 -4.38375 4.2125 -5 4 C-3 1 -3 1 0 0 Z " fill="#B283E7" transform="translate(103,28)"/>
</svg>
